<svg xmlns="http://www.w3.org/2000/svg" viewBox="0 0 200 200">
<defs>
<path id="shape" d="M100 5 123 69 193 72 139 115 157 183 100 145 43 183 61 115 7 72 77 69Z"/>
<clipPath id="cut"><use href="#shape"/></clipPath>
<linearGradient id="lit" x1="0" y1="0" x2="1" y2="1"><stop stop-color="#fffdf1"/><stop offset=".53" stop-color="#dfd7cd"/><stop offset="1" stop-color="#a79593"/></linearGradient>
<linearGradient id="shade" x1="1" y1="0" x2="0" y2="1"><stop stop-color="#c1aaa9"/><stop offset=".48" stop-color="#71636e"/><stop offset="1" stop-color="#4b414c"/></linearGradient>
<radialGradient id="center"><stop stop-color="#ffffff" stop-opacity=".42"/><stop offset="1" stop-color="#ffffff" stop-opacity="0"/></radialGradient>
<pattern id="glitter" width="47" height="47" patternUnits="userSpaceOnUse"><circle cx="0.01" cy="38.29" r="1.37" fill="#fff6b5" opacity="0.57"/><circle cx="21.16" cy="16.44" r="0.88" fill="#ffffff" opacity="0.78"/><circle cx="32.88" cy="4.99" r="0.66" fill="#62454b" opacity="0.43"/><circle cx="4.61" cy="0.12" r="1.05" fill="#ffd580" opacity="0.60"/><circle cx="21.78" cy="10.49" r="0.66" fill="#fff6b5" opacity="0.92"/><circle cx="5.03" cy="43.07" r="0.62" fill="#ffffff" opacity="0.94"/><circle cx="25.33" cy="13.20" r="1.15" fill="#62454b" opacity="0.93"/><circle cx="3.01" cy="15.72" r="0.91" fill="#ffd580" opacity="0.46"/><circle cx="28.72" cy="17.69" r="0.86" fill="#fff6b5" opacity="0.69"/><circle cx="16.29" cy="43.99" r="1.22" fill="#ffffff" opacity="0.73"/><circle cx="7.71" cy="23.22" r="1.41" fill="#62454b" opacity="0.87"/><circle cx="42.02" cy="5.07" r="0.84" fill="#ffd580" opacity="0.76"/><circle cx="42.70" cy="30.83" r="0.76" fill="#fff6b5" opacity="0.87"/><circle cx="42.09" cy="45.70" r="0.93" fill="#ffffff" opacity="0.86"/><circle cx="5.12" cy="1.51" r="0.88" fill="#62454b" opacity="0.82"/><circle cx="11.04" cy="29.66" r="1.43" fill="#ffd580" opacity="0.54"/><circle cx="28.79" cy="15.29" r="1.20" fill="#fff6b5" opacity="0.75"/><circle cx="22.80" cy="6.52" r="1.02" fill="#ffffff" opacity="0.48"/><circle cx="1.66" cy="23.53" r="0.88" fill="#62454b" opacity="0.66"/><circle cx="13.56" cy="21.26" r="0.63" fill="#ffd580" opacity="0.58"/><circle cx="0.31" cy="29.87" r="0.96" fill="#fff6b5" opacity="0.93"/><circle cx="8.42" cy="12.07" r="0.87" fill="#ffffff" opacity="0.42"/><circle cx="46.26" cy="36.12" r="1.24" fill="#62454b" opacity="0.89"/><circle cx="8.43" cy="41.59" r="0.68" fill="#ffd580" opacity="0.69"/><circle cx="44.67" cy="18.98" r="1.28" fill="#fff6b5" opacity="0.43"/><circle cx="27.35" cy="26.77" r="0.85" fill="#ffffff" opacity="0.49"/><circle cx="21.52" cy="27.17" r="0.79" fill="#62454b" opacity="0.93"/><circle cx="23.46" cy="21.43" r="1.18" fill="#ffd580" opacity="0.79"/><circle cx="3.90" cy="39.08" r="0.66" fill="#fff6b5" opacity="0.63"/><circle cx="29.76" cy="7.98" r="1.20" fill="#ffffff" opacity="0.83"/><circle cx="30.02" cy="45.26" r="0.63" fill="#62454b" opacity="0.41"/><circle cx="36.63" cy="27.48" r="0.73" fill="#ffd580" opacity="0.93"/><circle cx="11.56" cy="9.81" r="1.20" fill="#fff6b5" opacity="0.90"/><circle cx="16.91" cy="35.67" r="0.72" fill="#ffffff" opacity="0.53"/><circle cx="23.15" cy="13.09" r="0.58" fill="#62454b" opacity="0.69"/><circle cx="5.32" cy="33.22" r="0.67" fill="#ffd580" opacity="0.56"/><circle cx="24.24" cy="40.15" r="0.65" fill="#fff6b5" opacity="0.61"/><circle cx="14.65" cy="7.85" r="0.96" fill="#ffffff" opacity="0.88"/><circle cx="30.78" cy="37.27" r="0.78" fill="#62454b" opacity="0.54"/><circle cx="31.71" cy="41.66" r="0.57" fill="#ffd580" opacity="0.56"/><circle cx="8.81" cy="38.38" r="0.81" fill="#fff6b5" opacity="0.89"/><circle cx="38.68" cy="6.98" r="0.88" fill="#ffffff" opacity="0.47"/><circle cx="22.42" cy="42.26" r="1.27" fill="#62454b" opacity="0.78"/><circle cx="31.63" cy="33.08" r="0.60" fill="#ffd580" opacity="0.73"/><circle cx="15.92" cy="43.15" r="1.19" fill="#fff6b5" opacity="0.51"/><circle cx="6.40" cy="5.49" r="0.96" fill="#ffffff" opacity="0.41"/><circle cx="42.19" cy="11.38" r="1.19" fill="#62454b" opacity="0.60"/><circle cx="11.92" cy="45.35" r="1.15" fill="#ffd580" opacity="0.77"/><circle cx="19.34" cy="33.34" r="1.38" fill="#fff6b5" opacity="0.62"/><circle cx="27.71" cy="16.42" r="1.22" fill="#ffffff" opacity="0.90"/><circle cx="46.08" cy="17.11" r="1.11" fill="#62454b" opacity="0.77"/><circle cx="32.28" cy="18.34" r="1.08" fill="#ffd580" opacity="0.91"/><circle cx="46.98" cy="0.32" r="1.20" fill="#fff6b5" opacity="0.63"/><circle cx="35.77" cy="7.65" r="0.74" fill="#ffffff" opacity="0.81"/><circle cx="10.38" cy="23.01" r="1.01" fill="#62454b" opacity="0.70"/><circle cx="32.66" cy="10.56" r="0.94" fill="#ffd580" opacity="0.89"/><circle cx="32.39" cy="8.43" r="0.88" fill="#fff6b5" opacity="0.83"/><circle cx="36.99" cy="27.37" r="0.65" fill="#ffffff" opacity="0.85"/><circle cx="36.40" cy="1.72" r="0.60" fill="#62454b" opacity="0.78"/><circle cx="11.77" cy="43.93" r="0.69" fill="#ffd580" opacity="0.91"/><circle cx="26.49" cy="35.35" r="1.05" fill="#fff6b5" opacity="0.62"/><circle cx="27.71" cy="6.30" r="1.43" fill="#ffffff" opacity="0.65"/><circle cx="13.36" cy="41.09" r="0.57" fill="#62454b" opacity="0.41"/><circle cx="20.08" cy="4.36" r="0.78" fill="#ffd580" opacity="0.46"/><circle cx="37.24" cy="34.61" r="1.41" fill="#fff6b5" opacity="0.54"/><circle cx="26.26" cy="1.53" r="1.22" fill="#ffffff" opacity="0.60"/><circle cx="7.34" cy="12.11" r="0.73" fill="#62454b" opacity="0.51"/><circle cx="16.49" cy="12.97" r="1.10" fill="#ffd580" opacity="0.66"/><circle cx="14.37" cy="37.94" r="0.62" fill="#fff6b5" opacity="0.53"/><circle cx="24.87" cy="34.41" r="0.78" fill="#ffffff" opacity="0.50"/><circle cx="29.38" cy="15.42" r="1.06" fill="#62454b" opacity="0.68"/><circle cx="3.65" cy="36.29" r="1.41" fill="#ffd580" opacity="0.70"/><circle cx="20.18" cy="6.09" r="0.57" fill="#fff6b5" opacity="0.72"/><circle cx="30.56" cy="21.52" r="1.25" fill="#ffffff" opacity="0.92"/><circle cx="17.06" cy="19.12" r="0.72" fill="#62454b" opacity="0.43"/><circle cx="8.98" cy="39.26" r="0.92" fill="#ffd580" opacity="0.60"/><circle cx="29.93" cy="16.37" r="1.07" fill="#fff6b5" opacity="0.53"/><circle cx="13.87" cy="19.07" r="0.65" fill="#ffffff" opacity="0.54"/><circle cx="2.98" cy="2.43" r="1.05" fill="#62454b" opacity="0.61"/><circle cx="6.97" cy="32.38" r="0.62" fill="#ffd580" opacity="0.92"/><circle cx="27.48" cy="6.97" r="0.94" fill="#fff6b5" opacity="0.49"/><circle cx="43.46" cy="15.41" r="0.56" fill="#ffffff" opacity="0.43"/><circle cx="1.15" cy="23.25" r="1.01" fill="#62454b" opacity="0.81"/><circle cx="18.68" cy="45.08" r="1.27" fill="#ffd580" opacity="0.54"/><circle cx="4.68" cy="12.67" r="1.20" fill="#fff6b5" opacity="0.60"/><circle cx="22.64" cy="28.71" r="1.36" fill="#ffffff" opacity="0.47"/><circle cx="42.41" cy="18.70" r="0.87" fill="#62454b" opacity="0.55"/><circle cx="15.29" cy="16.57" r="1.45" fill="#ffd580" opacity="0.50"/><circle cx="30.70" cy="26.49" r="1.10" fill="#fff6b5" opacity="0.60"/><circle cx="20.34" cy="45.62" r="1.19" fill="#ffffff" opacity="0.49"/><circle cx="2.25" cy="20.38" r="1.41" fill="#62454b" opacity="0.76"/><circle cx="39.38" cy="29.03" r="1.21" fill="#ffd580" opacity="0.47"/><circle cx="7.30" cy="22.34" r="0.66" fill="#fff6b5" opacity="0.52"/><circle cx="32.71" cy="30.10" r="1.15" fill="#ffffff" opacity="0.68"/><circle cx="24.77" cy="31.14" r="1.35" fill="#62454b" opacity="0.84"/></pattern>
</defs>
<g clip-path="url(#cut)">
<use href="#shape" fill="#c6b5b3"/>
<path d="M100 105 100 5 123 69Z" fill="url(#shade)"/>
<path d="M100 105 123 69 193 72Z" fill="url(#lit)"/>
<path d="M100 105 193 72 139 115Z" fill="url(#shade)"/>
<path d="M100 105 139 115 157 183Z" fill="url(#lit)"/>
<path d="M100 105 157 183 100 145Z" fill="url(#shade)"/>
<path d="M100 105 100 145 43 183Z" fill="url(#lit)"/>
<path d="M100 105 43 183 61 115Z" fill="url(#shade)"/>
<path d="M100 105 61 115 7 72Z" fill="url(#lit)"/>
<path d="M100 105 7 72 77 69Z" fill="url(#shade)"/>
<path d="M100 105 77 69 100 5Z" fill="url(#lit)"/>
<use href="#shape" fill="url(#glitter)"/>
<path d="M100 5 100 105 193 72M157 183 100 105 43 183M7 72 100 105" fill="none" stroke="#fff5d9" stroke-width="1.2" opacity=".66"/>
<path d="M123 69 100 105 139 115M100 145 100 105 61 115M77 69 100 105" fill="none" stroke="#4e364e" stroke-width=".75" opacity=".35"/>
<ellipse cx="94" cy="94" rx="62" ry="55" fill="url(#center)"/>
<use href="#shape" fill="none" stroke="#fff6dc" stroke-width="1.8" opacity=".68"/>
</g></svg>
